 
<svg 
    xmlns="http://www.w3.org/2000/svg">
<symbol id="floppy-1"
        fill="#000">
<g fill="#fff" filter="url(#a)"> 
<path 
    d="M4 0h1.615v1.615H4zm0 1.615h1.615V3.23H4zm0 1.616h1.615v1.615H4zm0 1.615h1.615v1.615H4zm0 1.615h1.615v1.615H4zm0 1.616h1.615v1.615H4zm0 1.615h1.615v1.615H4zm0 1.616h1.615v1.615H4zm0 1.615h1.615v1.615H4zm0 1.616h1.615v1.615H4zm0 1.615h1.615v1.615H4zm0 1.615h1.615v1.615H4zm0 1.616h1.615V21H4zM21.77-.001v1.615h-1.615V-.001zM20.154 0v1.615h-1.615V0zm-1.616 0v1.615h-1.615V0zm-1.615 0v1.615h-1.615V0z" 
    /> 
<path 
    d="M15.308 0v1.615h-1.615V0zm-1.616 0v1.615h-1.615V0zm-1.615 0v1.615h-1.615V0zm-1.616 0v1.615H8.846V0zM8.846 0v1.615H7.231V0zM7.23.001v1.615H5.615V.001zm16.155 1.614V3.23H21.77V1.615zM8.846 3.231v1.615H7.231V3.231zm0-1.616V3.23H7.231V1.615zm0 3.231v1.615H7.231V4.846zm11.308-1.615v1.615h-1.615V3.231zm0-1.616V3.23h-1.615V1.615zm0 3.231v1.615h-1.615V4.846zm-3.231-1.615v1.615h-1.615V3.231zm0-1.616V3.23h-1.615V1.615zm0 3.231v1.615h-1.615V4.846zm3.231 1.615v1.615h-1.615V6.461zm-1.616 0v1.615h-1.615V6.461zm-1.615 0v1.615h-1.615V6.461zm-1.615 0v1.615h-1.615V6.461zm-1.616 0v1.615h-1.615V6.461zm-1.615 0v1.615h-1.615V6.461zm-1.616 0v1.615H8.846V6.461zm-1.615 0v1.615H7.231V6.461zm12.924 4.846v1.615h-1.615v-1.615zm-1.616.001v1.615h-1.615v-1.615zm-1.616 0v1.615h-1.615v-1.615zm-1.615 0v1.615h-1.615v-1.615zm-1.615 0v1.615h-1.615v-1.615zm-1.616 0v1.615h-1.615v-1.615zm-1.615 0v1.615h-1.615v-1.615zm-1.616 0v1.615H8.846v-1.615zm-1.615 0v1.615H7.231v-1.615zm12.924 1.614v1.615h-1.615v-1.615zm-12.924.001v1.615H7.231v-1.615zm12.924 1.615v1.615h-1.615v-1.615zm-12.924.001v1.615H7.231v-1.615zm12.924 1.614v1.615h-1.615v-1.615zm-12.924.001v1.615H7.231v-1.615zm0 1.615v1.615H7.231v-1.615zm12.924-.001v1.615h-1.615v-1.615zm1.615 1.617V21H21.77v-1.615zm-1.615-.001v1.615h-1.615v-1.615zm-1.616.001V21h-1.615v-1.615zm-1.616 0V21h-1.615v-1.615zm-1.615 0V21h-1.615v-1.615zm-1.615 0V21h-1.615v-1.615zm-1.616 0V21h-1.615v-1.615zm-1.615 0V21h-1.615v-1.615zm-1.616 0V21H8.846v-1.615zm-1.615 0V21H7.231v-1.615zm-1.616.001v1.615H5.615v-1.615zM25 21h-1.615v-1.615H25zm0-1.615h-1.615V17.77H25zm0-1.616h-1.615v-1.615H25zm0-1.615h-1.615v-1.615H25zm0-1.615h-1.615v-1.615H25zm0-1.616h-1.615v-1.615H25zm0-1.615h-1.615V9.693H25zm0-1.616h-1.615V8.077H25zm0-1.615h-1.615V6.462H25zm0-1.616h-1.615V4.846H25zm0-1.615h-1.615V3.231H25z" 
    /> 
 </symbol> 
 </svg>
<svg
    xmlns="http://www.w3.org/2000/svg"> 
<symbol id="floppy-1"
        fill="000">
<g fill="#fff" filter="url(#a)"> 
<path  
    d="M.5.5h3v3h-3zM.5 3.5h3v3h-3zM.5 6.5h3v3h-3zM.5 9.5h3v3h-3zM.5 12.5h3v3h-3zM.5 15.5h3v3h-3zM.5 18.5h3v3h-3zM.5 21.5h3v3h-3zM.5 24.5h3v3h-3zM.5 27.5h3v3h-3zM.5 30.5h3v3h-3zM.5 33.5h3v3h-3zM.5 36.5h3v3h-3zM33.5.5v3h-3v-3zM30.5.5v3h-3v-3zM27.5.5v3h-3v-3zM24.5.5v3h-3v-3zM21.5.5v3h-3v-3zM18.5.5v3h-3v-3zM15.5.5v3h-3v-3zM12.5.5v3h-3v-3zM9.5.5v3h-3v-3zM6.5.5v3h-3v-3zM36.5 3.5v3h-3v-3zM9.5 6.5v3h-3v-3zM9.5 3.5v3h-3v-3zM9.5 9.5v3h-3v-3zM30.5 6.5v3h-3v-3zM30.5 3.5v3h-3v-3zM30.5 9.5v3h-3v-3zM24.5 6.5v3h-3v-3zM24.5 3.5v3h-3v-3zM24.5 9.5v3h-3v-3zM30.5 12.5v3h-3v-3zM27.5 12.5v3h-3v-3zM24.5 12.5v3h-3v-3zM21.5 12.5v3h-3v-3zM18.5 12.5v3h-3v-3zM15.5 12.5v3h-3v-3zM12.5 12.5v3h-3v-3zM9.5 12.5v3h-3v-3zM33.5 21.5v3h-3v-3zM30.5 21.5v3h-3v-3zM27.5 21.5v3h-3v-3zM24.5 21.5v3h-3v-3zM21.5 21.5v3h-3v-3zM18.5 21.5v3h-3v-3zM15.5 21.5v3h-3v-3zM12.5 21.5v3h-3v-3zM9.5 21.5v3h-3v-3zM33.5 24.5v3h-3v-3zM9.5 24.5v3h-3v-3zM33.5 27.5v3h-3v-3zM9.5 27.5v3h-3v-3zM33.5 30.5v3h-3v-3zM9.5 30.5v3h-3v-3zM9.5 33.5v3h-3v-3zM33.5 33.5v3h-3v-3zM36.5 36.5v3h-3v-3zM33.5 36.5v3h-3v-3zM30.5 36.5v3h-3v-3zM27.5 36.5v3h-3v-3zM24.5 36.5v3h-3v-3zM21.5 36.5v3h-3v-3zM18.5 36.5v3h-3v-3zM15.5 36.5v3h-3v-3zM12.5 36.5v3h-3v-3zM9.5 36.5v3h-3v-3zM6.5 36.5v3h-3v-3zM39.5 39.5h-3v-3h3zM39.5 36.5h-3v-3h3zM39.5 33.5h-3v-3h3zM39.5 30.5h-3v-3h3zM39.5 27.5h-3v-3h3zM39.5 24.5h-3v-3h3zM39.5 21.5h-3v-3h3zM39.5 18.5h-3v-3h3zM39.5 15.5h-3v-3h3zM39.5 12.5h-3v-3h3zM39.5 9.5h-3v-3h3z" 
    /> 
</symbol>
</svg>
</svg>