<svg  
    xmlns="http://www.w3.org/2000/svg"> 
<symbol id="floppy-1" 
        fill="#currentColor"> 
<g fill="#currentColor" filter="url(#a)">  
<path  
    d="M4 0h1.615v1.615H4zm0 1.615h1.615V3.23H4zm0 1.616h1.615v1.615H4zm0 1.615h1.615v1.615H4zm0 1.615h1.615v1.615H4zm0 1.616h1.615v1.615H4zm0 1.615h1.615v1.615H4zm0 1.616h1.615v1.615H4zm0 1.615h1.615v1.615H4zm0 1.616h1.615v1.615H4zm0 1.615h1.615v1.615H4zm0 1.615h1.615v1.615H4zm0 1.616h1.615V21H4zM21.77-.001v1.615h-1.615V-.001zM20.154 0v1.615h-1.615V0zm-1.616 0v1.615h-1.615V0zm-1.615 0v1.615h-1.615V0z"  
    />  
<path  
    d="M15.308 0v1.615h-1.615V0zm-1.616 0v1.615h-1.615V0zm-1.615 0v1.615h-1.615V0zm-1.616 0v1.615H8.846V0zM8.846 0v1.615H7.231V0zM7.23.001v1.615H5.615V.001zm16.155 1.614V3.23H21.77V1.615zM8.846 3.231v1.615H7.231V3.231zm0-1.616V3.23H7.231V1.615zm0 3.231v1.615H7.231V4.846zm11.308-1.615v1.615h-1.615V3.231zm0-1.616V3.23h-1.615V1.615zm0 3.231v1.615h-1.615V4.846zm-3.231-1.615v1.615h-1.615V3.231zm0-1.616V3.23h-1.615V1.615zm0 3.231v1.615h-1.615V4.846zm3.231 1.615v1.615h-1.615V6.461zm-1.616 0v1.615h-1.615V6.461zm-1.615 0v1.615h-1.615V6.461zm-1.615 0v1.615h-1.615V6.461zm-1.616 0v1.615h-1.615V6.461zm-1.615 0v1.615h-1.615V6.461zm-1.616 0v1.615H8.846V6.461zm-1.615 0v1.615H7.231V6.461zm12.924 4.846v1.615h-1.615v-1.615zm-1.616.001v1.615h-1.615v-1.615zm-1.616 0v1.615h-1.615v-1.615zm-1.615 0v1.615h-1.615v-1.615zm-1.615 0v1.615h-1.615v-1.615zm-1.616 0v1.615h-1.615v-1.615zm-1.615 0v1.615h-1.615v-1.615zm-1.616 0v1.615H8.846v-1.615zm-1.615 0v1.615H7.231v-1.615zm12.924 1.614v1.615h-1.615v-1.615zm-12.924.001v1.615H7.231v-1.615zm12.924 1.615v1.615h-1.615v-1.615zm-12.924.001v1.615H7.231v-1.615zm12.924 1.614v1.615h-1.615v-1.615zm-12.924.001v1.615H7.231v-1.615zm0 1.615v1.615H7.231v-1.615zm12.924-.001v1.615h-1.615v-1.615zm1.615 1.617V21H21.77v-1.615zm-1.615-.001v1.615h-1.615v-1.615zm-1.616.001V21h-1.615v-1.615zm-1.616 0V21h-1.615v-1.615zm-1.615 0V21h-1.615v-1.615zm-1.615 0V21h-1.615v-1.615zm-1.616 0V21h-1.615v-1.615zm-1.615 0V21h-1.615v-1.615zm-1.616 0V21H8.846v-1.615zm-1.615 0V21H7.231v-1.615zm-1.616.001v1.615H5.615v-1.615zM25 21h-1.615v-1.615H25zm0-1.615h-1.615V17.77H25zm0-1.616h-1.615v-1.615H25zm0-1.615h-1.615v-1.615H25zm0-1.615h-1.615v-1.615H25zm0-1.616h-1.615v-1.615H25zm0-1.615h-1.615V9.693H25zm0-1.616h-1.615V8.077H25zm0-1.615h-1.615V6.462H25zm0-1.616h-1.615V4.846H25zm0-1.615h-1.615V3.231H25z"  
    />
 </symbol>  
 </svg> 
